<svg width="22" height="19" viewBox="0 0 22 19" fill="none" xmlns="http://www.w3.org/2000/svg">
<path d="M 20.3 9.8 C 22.6 7.5 22.6 3.9 20.3 1.7 C 18 -0.6 14.3 -0.6 12.1 1.7 L 11 2.8 L 9.9 1.7 C 7.6 -0.6 3.9 -0.6 1.7 1.7 C 0.6 2.8 0 4.2 0 5.7 C 0 7.3 0.6 8.7 1.7 9.8 L 11 19 L 20.3 9.8 Z M 1.4 5.7 C 1.4 4.6 1.9 3.5 2.7 2.7 C 3.6 1.9 4.7 1.5 5.8 1.5 C 6.9 1.5 8 1.9 8.8 2.7 L 11 4.8 L 13.1 2.7 C 14.8 1 17.6 1 19.2 2.7 C 20.1 3.5 20.5 4.6 20.5 5.7 C 20.5 6.9 20.1 7.9 19.2 8.7 L 11 16.9 L 2.7 8.8 C 1.9 7.9 1.4 6.9 1.4 5.7 Z" fill="#54a3a8"/>
</svg>
