<svg width="18" height="19" viewBox="0 0 18 19" fill="none" xmlns="http://www.w3.org/2000/svg">
<path font-family="serif, serif" stroke="rgb(255, 255, 255)" d="M 2.5 17.2 C 2.5 17.8 3.1 18.3 3.7 18.3 H 14.3 C 14.9 18.3 15.5 17.8 15.5 17.2 L 16.7 5.7 H 1.3 L 2.5 17.2 Z" fill="#54a3a8"/>
<path stroke="rgb(255, 255, 255)" d="M 16.7 1.9 H 11.6 V 1.3 C 11.6 0.6 11 0 10.3 0 H 7.7 C 7 0 6.4 0.6 6.4 1.3 V 1.9 H 1.3 C 0.6 1.9 0 2.5 0 3.2 C 0 3.9 0.6 4.4 1.3 4.4 H 16.7 C 17.4 4.4 18 3.9 18 3.2 C 18 2.5 17.4 1.9 16.7 1.9 Z" fill="#54a3a8"/>
</svg>
